<svg id="Layer_1" enable-background="new 0 0 256 256" height="512" viewBox="0 0 256 256" width="512" xmlns="http://www.w3.org/2000/svg"><g><g><g><g><path d="m90.866 152.915h-14.019c0-10.937 0-18.345 0-30.777h-39.897v30.777h-13.98c-11.029 0-19.97 8.94-19.97 19.969v43.721h107.835c0-6.22 0-37.434 0-43.721 0-11.029-8.94-19.969-19.969-19.969z" fill="#f9cfcf"/></g></g><g><g><path d="m19.77 218.604c-1.104 0-2-.896-2-2v-33.286c0-1.104.896-2 2-2s2 .896 2 2v33.286c0 1.105-.896 2-2 2z" fill="#3762cc"/></g></g><g><g><path d="m94.056 218.604c-1.104 0-2-.896-2-2v-33.286c0-1.104.896-2 2-2s2 .896 2 2v33.286c0 1.105-.896 2-2 2z" fill="#3762cc"/></g></g><g><g><path d="m110.835 218.604h-107.835c-1.104 0-2-.896-2-2v-43.721c0-12.114 9.855-21.969 21.969-21.969h11.98v-28.777c0-1.104.896-2 2-2h39.897c1.104 0 2 .896 2 2v28.777h12.019c12.114 0 21.97 9.855 21.97 21.969v43.721c0 1.105-.895 2-2 2zm-105.835-4h103.835v-41.721c0-9.908-8.061-17.969-17.97-17.969h-14.018c-1.104 0-2-.896-2-2v-28.777h-35.897v28.777c0 1.104-.896 2-2 2h-13.98c-9.909.001-17.97 8.062-17.97 17.97z" fill="#3762cc"/></g></g><g><g><path d="m56.918 138.897c-25.835 0-46.779-20.944-46.779-46.779v-19.593c0-6.494 5.264-11.758 11.758-11.758h81.8v31.352c0 25.834-20.944 46.778-46.779 46.778z" fill="#4671c6"/></g></g><g><g><path d="m56.917 140.897c-26.896 0-48.779-21.882-48.779-48.779v-19.593c0-7.586 6.172-13.758 13.758-13.758h81.8c1.104 0 2 .896 2 2v31.352c.001 26.896-21.882 48.778-48.779 48.778zm-35.02-78.13c-5.381 0-9.758 4.377-9.758 9.758v19.593c0 24.691 20.088 44.779 44.779 44.779s44.779-20.088 44.779-44.779v-29.351z" fill="#3762cc"/></g></g><g><g><path d="m96.759 95.28v-3.73c0-21.806-17.838-39.483-39.842-39.483-22.004 0-39.842 17.677-39.842 39.483v3.731c-6.918-.14-12.407 5.371-12.407 12.033 0 7.114 6.21 12.741 13.459 11.974 4.112 17.469 19.913 30.483 38.789 30.483 18.878 0 34.678-13.016 38.789-30.483 7.239.766 13.459-4.851 13.459-11.974.002-6.666-5.491-12.174-12.405-12.034z" fill="#f9cfcf"/></g></g><g><g><path d="m56.913 131.326c-1.666 0-3.122-.197-4.451-.601-2.206-.671-4.144-1.803-5.603-3.273-.778-.784-.773-2.05.011-2.829.784-.777 2.05-.773 2.829.011.994 1.002 2.352 1.785 3.927 2.264.947.288 2.022.428 3.288.428s2.34-.14 3.287-.428c1.575-.479 2.933-1.261 3.927-2.264.778-.784 2.044-.789 2.829-.011.784.778.789 2.044.011 2.829-1.459 1.471-3.397 2.603-5.604 3.273-1.33.404-2.786.601-4.451.601z" fill="#3762cc"/></g></g><g><g><path d="m77.602 115.518c-2.781 0-5.036-2.255-5.036-5.036v-5.371c0-2.781 2.255-5.036 5.036-5.036 2.781 0 5.036 2.255 5.036 5.036v5.371c0 2.781-2.255 5.036-5.036 5.036z" fill="#3762cc"/></g></g><g><g><path d="m36.223 115.518c-2.781 0-5.036-2.255-5.036-5.036v-5.371c0-2.781 2.255-5.036 5.036-5.036 2.781 0 5.036 2.255 5.036 5.036v5.371c0 2.781-2.255 5.036-5.036 5.036z" fill="#3762cc"/></g></g><g><g><path d="m56.917 151.771c-18.986 0-35.335-12.425-40.324-30.417-3.418-.058-6.725-1.338-9.276-3.635-2.954-2.658-4.648-6.451-4.648-10.406 0-3.786 1.496-7.336 4.211-9.998 2.248-2.203 5.104-3.563 8.195-3.935v-1.83c0-22.874 18.77-41.483 41.842-41.483s41.842 18.609 41.842 41.483v1.832c3.092.371 5.948 1.732 8.196 3.935 2.715 2.661 4.211 6.211 4.211 9.997 0 3.955-1.694 7.747-4.646 10.405-2.552 2.296-5.86 3.578-9.278 3.636-4.99 17.991-21.339 30.416-40.325 30.416zm-38.788-34.483c.918 0 1.731.63 1.945 1.542 4.011 17.041 19.161 28.941 36.843 28.941s32.833-11.901 36.843-28.941c.231-.98 1.154-1.639 2.157-1.531 2.893.304 5.783-.625 7.927-2.554 2.111-1.9 3.322-4.608 3.322-7.431 0-2.702-1.069-5.238-3.011-7.14-1.961-1.922-4.57-2.947-7.356-2.894-.534.021-1.056-.194-1.44-.571-.384-.376-.6-.891-.6-1.429v-3.73c0-20.668-16.976-37.483-37.842-37.483s-37.841 16.815-37.841 37.483v3.73c0 .538-.216 1.052-.6 1.428s-.904.589-1.44.571c-2.771-.059-5.394.971-7.355 2.893-1.941 1.902-3.011 4.438-3.011 7.141 0 2.823 1.211 5.532 3.324 7.433 2.174 1.957 4.989 2.861 7.925 2.553.07-.008.141-.011.21-.011z" fill="#3762cc"/></g></g><g><g><path d="m103.697 87.622h-62.508c-13.317 0-24.113-10.796-24.113-24.113 0-13.317 10.796-24.113 24.113-24.113h40.915c11.925 0 21.593 9.667 21.593 21.593z" fill="#4671c6"/></g></g><g><g><path d="m103.697 89.622h-62.508c-14.399 0-26.113-11.714-26.113-26.113s11.714-26.113 26.113-26.113h40.915c13.009 0 23.593 10.583 23.593 23.593v26.634c0 1.104-.896 1.999-2 1.999zm-62.508-48.226c-12.193 0-22.113 9.92-22.113 22.113s9.92 22.113 22.113 22.113h60.508v-24.634c0-10.804-8.789-19.593-19.593-19.593h-40.915z" fill="#3762cc"/></g></g></g><g><g><path d="m245 23h-114.333c-4.418 0-8 3.582-8 8v86.068l-15.987 9.198c-1.337.769-1.337 2.698 0 3.467l15.987 9.198v86.069c0 4.418 3.582 8 8 8h114.333c4.418 0 8-3.582 8-8v-194c0-4.418-3.582-8-8-8z" fill="#e0ebfc"/></g></g><g><g><path d="m221.21 69.802h-21.606v-21.606c0-2.053-1.664-3.717-3.717-3.717h-16.107c-2.053 0-3.717 1.664-3.717 3.717v21.606h-21.606c-2.053 0-3.717 1.664-3.717 3.717v16.108c0 2.053 1.664 3.717 3.717 3.717h21.606v21.606c0 2.053 1.664 3.717 3.717 3.717h16.108c2.053 0 3.717-1.664 3.717-3.717v-21.606h21.606c2.053 0 3.717-1.664 3.717-3.717v-16.108c-.001-2.053-1.665-3.717-3.718-3.717z" fill="#f9a7a7"/></g></g><g><g><path d="m154.929 153.459h-12.242c-1.369 0-2.479-1.11-2.479-2.479v-12.242c0-1.369 1.11-2.479 2.479-2.479h12.242c1.369 0 2.479 1.11 2.479 2.479v12.242c.001 1.369-1.109 2.479-2.479 2.479z" fill="#4671c6"/></g></g><g><g><g><path d="m235.458 148.583h-67.958c-2.209 0-4-1.791-4-4s1.791-4 4-4h67.958c2.209 0 4 1.791 4 4s-1.791 4-4 4z" fill="#4671c6"/></g></g></g><g><g><path d="m154.929 183.321h-12.242c-1.369 0-2.479-1.11-2.479-2.479v-12.242c0-1.369 1.11-2.479 2.479-2.479h12.242c1.369 0 2.479 1.11 2.479 2.479v12.242c.001 1.369-1.109 2.479-2.479 2.479z" fill="#4671c6"/></g></g><g><g><g><path d="m235.458 178.583h-67.958c-2.209 0-4-1.791-4-4s1.791-4 4-4h67.958c2.209 0 4 1.791 4 4s-1.791 4-4 4z" fill="#4671c6"/></g></g></g><g><g><path d="m154.929 213.429h-12.242c-1.369 0-2.479-1.11-2.479-2.479v-12.242c0-1.369 1.11-2.479 2.479-2.479h12.242c1.369 0 2.479 1.11 2.479 2.479v12.242c.001 1.369-1.109 2.479-2.479 2.479z" fill="#4671c6"/></g></g><g><g><g><path d="m235.458 208.583h-67.958c-2.209 0-4-1.791-4-4s1.791-4 4-4h67.958c2.209 0 4 1.791 4 4s-1.791 4-4 4z" fill="#4671c6"/></g></g></g><g><g><g><path d="m145.342 150.786c-.137 0-.273-.011-.411-.034-.789-.131-1.467-.632-1.825-1.348l-4.339-8.677c-.617-1.235-.116-2.737 1.118-3.354 1.236-.619 2.736-.118 3.354 1.118l2.801 5.603 12.683-12.472c.985-.967 2.567-.954 3.535.03.969.984.955 2.567-.029 3.536l-15.134 14.882c-.471.462-1.102.716-1.753.716z" fill="#f9a7a7"/></g></g></g><g><g><g><path d="m145.342 182.076c-.137 0-.273-.011-.411-.034-.789-.131-1.467-.632-1.825-1.348l-4.339-8.678c-.617-1.235-.116-2.737 1.118-3.354 1.236-.618 2.736-.118 3.354 1.118l2.801 5.603 12.683-12.472c.985-.967 2.567-.954 3.535.03.969.984.955 2.567-.029 3.536l-15.134 14.882c-.471.463-1.102.717-1.753.717z" fill="#f9a7a7"/></g></g></g><g><g><g><path d="m145.342 211.073c-.137 0-.273-.011-.411-.034-.789-.131-1.467-.632-1.825-1.348l-4.339-8.678c-.617-1.235-.116-2.737 1.118-3.354 1.236-.618 2.736-.117 3.354 1.118l2.801 5.603 12.683-12.471c.985-.967 2.567-.955 3.535.03.969.984.955 2.567-.029 3.536l-15.134 14.882c-.471.462-1.102.716-1.753.716z" fill="#f9a7a7"/></g></g></g><g><g><path d="m245 235h-114.333c-5.514 0-10-4.486-10-10v-84.912l-14.984-8.622c-1.255-.722-2.005-2.018-2.005-3.467s.75-2.745 2.006-3.467l14.984-8.622v-84.91c0-5.514 4.486-10 10-10h114.332c5.514 0 10 4.486 10 10v194c0 5.514-4.486 10-10 10zm-114.333-210c-3.309 0-6 2.691-6 6v86.068c0 .716-.382 1.376-1.002 1.733l-15.988 9.199 15.987 9.198c.62.357 1.002 1.018 1.002 1.733v86.069c0 3.309 2.692 6 6 6h114.334c3.309 0 6-2.691 6-6v-194c0-3.309-2.691-6-6-6z" fill="#3762cc"/></g></g></g></svg>