<?xml version="1.0" encoding="iso-8859-1"?>
<!-- Generator: Adobe Illustrator 19.0.0, SVG Export Plug-In . SVG Version: 6.00 Build 0)  -->
<svg version="1.1" id="Capa_1" xmlns="http://www.w3.org/2000/svg" xmlns:xlink="http://www.w3.org/1999/xlink" x="0px" y="0px"
	 viewBox="0 0 512.069 512.069" style="enable-background:new 0 0 512.069 512.069;" xml:space="preserve">
<g>
	<path style="fill:#2196F3;" d="M164.644,380.96l77.8,123.6c2.9,4.6,8.1,7.5,13.6,7.5c5.5,0,10.6-2.8,13.5-7.5l77.8-123.6
		c-25.9-18.2-57.3-29-91.3-29S190.644,362.76,164.644,380.96z"/>
	<path style="fill:#2196F3;" d="M256.244,255.96c-0.1,0-0.1,0-0.2,0c-52.8,0-101.9,16.1-142.6,43.6l34.1,54.2
		c30.9-21.3,68.2-33.8,108.5-33.8c29.7,0,57.8,6.8,82.9,18.9L256.244,255.96z"/>
	<path style="fill:#2196F3;" d="M398.644,299.56c-18.7-12.6-39.2-22.8-61-30.2l49,49.3L398.644,299.56z"/>
	<path style="fill:#2196F3;" d="M170.544,170.56c-39,9.8-75.5,26.2-108.2,47.8l34,54.1c37.8-25.2,81.8-41.9,129.3-46.9
		L170.544,170.56z"/>
	<path style="fill:#2196F3;" d="M256.044,159.96c-9.1,0-18.1,0.4-27,1l65.4,65.5c44.4,6,85.6,22.1,121.2,45.9l34-54.1
		C394.144,181.56,327.644,159.96,256.044,159.96z"/>
	<path style="fill:#2196F3;" d="M69.644,69.56c-21.3,9-42,19.5-61.9,31.6c-3.6,2.2-6.3,5.8-7.3,10s-0.3,8.6,2,12.2l42.8,68
		c30.4-20,63.7-35.9,99.3-46.8L69.644,69.56z"/>
	<path style="fill:#2196F3;" d="M511.644,111.16c-1-4.2-3.6-7.8-7.3-10c-74.5-45.3-160.4-69.2-248.3-69.2
		c-46.5,0-92.4,6.7-136.4,19.7l80.6,80.4c18.2-2.7,36.8-4.1,55.8-4.1c77.8,0,150.2,23.4,210.8,63.4l42.8-67.9
		C511.844,119.76,512.644,115.36,511.644,111.16z"/>
</g>
<path style="fill:#F44336;" d="M496.044,511.96c-4.1,0-8.2-1.6-11.3-4.7l-480-480c-6.2-6.2-6.2-16.4,0-22.6s16.4-6.2,22.6,0l480,480
	c6.2,6.2,6.2,16.4,0,22.6C504.244,510.36,500.144,511.96,496.044,511.96z"/>
<g>
</g>
<g>
</g>
<g>
</g>
<g>
</g>
<g>
</g>
<g>
</g>
<g>
</g>
<g>
</g>
<g>
</g>
<g>
</g>
<g>
</g>
<g>
</g>
<g>
</g>
<g>
</g>
<g>
</g>
</svg>
