<svg height="512pt" viewBox="0 0 512 512" width="512pt" xmlns="http://www.w3.org/2000/svg"><path d="m482 35c-16.570312 0-30 13.429688-30 30v164.804688l-226 202.195312 30 80h166v-45l90-152v-250c0-16.570312-13.429688-30-30-30zm0 0" fill="#ff9e90"/><path d="m443.214844 208.785156c-11.71875-11.714844-30.710938-11.714844-42.429688 0l-127.253906 127.253906c-10.851562 10.859376-17.53125 25.894532-17.53125 42.460938l-30 51.75 30 51.75c49.707031 0 90-40.292969 90-90v-43.574219l97.214844-97.210937c11.714844-11.71875 11.714844-30.710938 0-42.429688zm0 0" fill="#ffb4b3"/><path d="m30 35c16.570312 0 30 13.429688 30 30v164.804688l135.5 118.121093 60.5 134.074219v30h-166v-45l-90-152v-250c0-16.570312 13.429688-30 30-30zm0 0" fill="#ffb4b3"/><path d="m238.46875 336.039062-127.253906-127.253906c-11.71875-11.714844-30.710938-11.714844-42.429688 0-11.714844 11.71875-11.714844 30.710938 0 42.429688l97.214844 97.210937v43.574219c0 49.707031 40.292969 90 90 90v-103.5c0-16.566406-6.679688-31.601562-17.53125-42.460938zm0 0" fill="#ffcad6"/><path d="m256 0-30.304688 125 30.304688 125c69.035156 0 125-55.964844 125-125s-55.964844-125-125-125zm0 0" fill="#1e8aff"/><path d="m131 125c0 69.035156 55.964844 125 125 125v-250c-69.035156 0-125 55.964844-125 125zm0 0" fill="#54a5ff"/><path d="m256 30-23.03125 95 23.03125 95c52.46875 0 95-42.53125 95-95s-42.53125-95-95-95zm0 0" fill="#dae0e7"/><path d="m161 125c0 52.46875 42.53125 95 95 95v-190c-52.46875 0-95 42.53125-95 95zm0 0" fill="#fff"/><path d="m256 60-15.757812 65 15.757812 65c35.898438 0 65-29.101562 65-65s-29.101562-65-65-65zm0 0" fill="#ff2b59"/><path d="m191 125c0 35.898438 29.101562 65 65 65v-130c-35.898438 0-65 29.101562-65 65zm0 0" fill="#ff4e51"/></svg>