<svg width="64" height="64" viewBox="0 0 64 64" fill="none" xmlns="http://www.w3.org/2000/svg">
<path d="M7.56114 0H56.4356C58.4418 0 60.3658 0.796962 61.7844 2.21556C63.203 3.63417 64 5.5582 64 7.56441V56.4356C64 58.4418 63.203 60.3658 61.7844 61.7844C60.3658 63.203 58.4418 64 56.4356 64H7.56441C5.5582 64 3.63417 63.203 2.21556 61.7844C0.796962 60.3658 0 58.4418 0 56.4356L0 7.56114C0 5.5558 0.796618 3.6326 2.21461 2.21461C3.6326 0.796618 5.5558 0 7.56114 0V0Z" fill="#303E48"/>
<path d="M32.3629 35.7135C35.4139 34.9007 37.7087 33.4165 39.2473 31.2612C40.7747 29.1555 41.586 26.6151 41.5618 24.0139C41.5953 21.7999 41.0306 19.618 39.9273 17.6982C38.754 15.7502 37.0325 14.1913 34.9781 13.2165C32.7813 12.1115 30.1193 11.5591 26.9919 11.5591H13.6447V18.3062H26.6781C28.8749 18.3062 30.5094 18.8206 31.5816 19.8492C32.6538 20.8778 33.1986 22.3227 33.2161 24.1839C33.2161 26.0864 32.6712 27.5716 31.5816 28.6395C30.4919 29.7073 28.8574 30.2402 26.6781 30.238H23.736V36.3771L32.6309 52.1826H41.601L32.3629 35.7135Z" fill="white"/>
<path d="M20.3723 30.225V52.1598H13.6447V30.225H20.3723Z" fill="white"/>
<path d="M17.0085 27.6587C18.8662 27.6587 20.3723 26.144 20.3723 24.2754C20.3723 22.4068 18.8662 20.892 17.0085 20.892C15.1507 20.892 13.6447 22.4068 13.6447 24.2754C13.6447 26.144 15.1507 27.6587 17.0085 27.6587Z" fill="#0082FF"/>
<path d="M46.7594 52.1532C48.6713 52.1532 50.2213 50.5945 50.2213 48.6718C50.2213 46.749 48.6713 45.1903 46.7594 45.1903C44.8475 45.1903 43.2976 46.749 43.2976 48.6718C43.2976 50.5945 44.8475 52.1532 46.7594 52.1532Z" fill="#0082FF"/>
</svg>
